<svg xmlns="http://www.w3.org/2000/svg" viewBox="0 0 24 24" fill="#E4405F"><path d="M12 2.163c3.204 0 3.584.012 4.85.07c1.3.062 1.956.342 2.404.524a3.91 3.91 0 0 1 1.487 1.057c.484.484.821 1.118 1.057 1.487.182.448.462 1.104.524 2.403.058 1.267.07 1.647.07 4.85s-.012 3.584-.07 4.85c-.062 1.3-.342 1.956-.524 2.404a3.91 3.91 0 0 1-1.057 1.487c-.484.484-1.118.821-1.487 1.057-.448.182-1.104.462-2.403.524-1.267.058-1.647.07-4.85.07s-3.584-.012-4.85-.07c-1.3-.062-1.956-.342-2.404-.524a3.91 3.91 0 0 1-1.487-1.057c-.484-.484-.821-1.118-1.057-1.487-.182-.448-.462-1.104-.524-2.403-.058-1.267-.07-1.647-.07-4.85s.012-3.584.07-4.85c.062-1.3.342-1.956.524-2.404a3.91 3.91 0 0 1 1.057-1.487c.484-.484 1.118-.821 1.487-1.057.448-.182 1.104-.462 2.403-.524C8.416 2.175 8.796 2.163 12 2.163zm0 3.84a6 6 0 1 0 0 12 6 6 0 0 0 0-12zm0 2a4 4 0 1 1 0 8 4 4 0 0 1 0-8zm6.5-1.5a1.5 1.5 0 1 0 0 3 1.5 1.5 0 0 0 0-3z"/></svg>